<svg width="16" height="17" viewBox="0 0 16 17" fill="none" xmlns="http://www.w3.org/2000/svg">
<path d="M8 0.5C10.1217 0.5 12.1566 1.34285 13.6569 2.84314C15.1571 4.34344 16 6.37827 16 8.5C16 10.6217 15.1571 12.6566 13.6569 14.1569C12.1566 15.6571 10.1217 16.5 8 16.5C5.87827 16.5 3.84344 15.6571 2.34315 14.1569C0.842855 12.6566 -2.56947e-07 10.6217 -3.49691e-07 8.5C-4.42435e-07 6.37827 0.842854 4.34344 2.34315 2.84315C3.84344 1.34285 5.87827 0.5 8 0.5ZM4.5 8C4.36739 8 4.24021 8.05268 4.14645 8.14645C4.05268 8.24021 4 8.36739 4 8.5C4 8.63261 4.05268 8.75978 4.14645 8.85355C4.24021 8.94732 4.36739 9 4.5 9L10.293 9L8.146 11.146C8.05211 11.2399 7.99937 11.3672 7.99937 11.5C7.99937 11.6328 8.05211 11.7601 8.146 11.854C8.23989 11.9479 8.36722 12.0006 8.5 12.0006C8.63278 12.0006 8.76011 11.9479 8.854 11.854L11.854 8.854C11.9006 8.80755 11.9375 8.75238 11.9627 8.69163C11.9879 8.63089 12.0009 8.56577 12.0009 8.5C12.0009 8.43423 11.9879 8.36911 11.9627 8.30837C11.9375 8.24762 11.9006 8.19245 11.854 8.146L8.854 5.146C8.76011 5.05211 8.63277 4.99937 8.5 4.99937C8.36722 4.99937 8.23989 5.05211 8.146 5.146C8.05211 5.23989 7.99937 5.36722 7.99937 5.5C7.99937 5.63277 8.05211 5.76011 8.146 5.854L10.293 8L4.5 8Z" fill="#3615FF"/>
</svg>
