<svg width="404" height="31" viewBox="0 0 404 31" fill="none" xmlns="http://www.w3.org/2000/svg">
<path d="M16.7752 8.65774C16.6258 7.33317 16.0097 6.30709 14.9268 5.57951C13.8439 4.8426 12.481 4.47414 10.838 4.47414C9.66182 4.47414 8.6443 4.6607 7.78547 5.03382C6.92664 5.39761 6.25918 5.90132 5.78309 6.54496C5.31634 7.17926 5.08296 7.90218 5.08296 8.71371C5.08296 9.39466 5.24166 9.98232 5.55905 10.4767C5.88578 10.9711 6.31052 11.3862 6.83329 11.722C7.36539 12.0485 7.93483 12.3236 8.54161 12.5475C9.14839 12.7621 9.73184 12.9393 10.2919 13.0792L13.0925 13.8068C14.0073 14.0307 14.9455 14.3338 15.907 14.7163C16.8685 15.0987 17.76 15.6024 18.5815 16.2274C19.403 16.8524 20.0658 17.6266 20.5699 18.5501C21.0833 19.4735 21.34 20.5789 21.34 21.8662C21.34 23.4893 20.9199 24.9304 20.0798 26.1897C19.249 27.449 18.0401 28.4424 16.4531 29.17C14.8755 29.8976 12.9664 30.2614 10.726 30.2614C8.57895 30.2614 6.72127 29.9209 5.15297 29.24C3.58468 28.559 2.35711 27.5936 1.47028 26.3436C0.583443 25.0843 0.0933509 23.5919 0 21.8662H4.34082C4.42484 22.9016 4.7609 23.7644 5.34901 24.4547C5.94646 25.1356 6.70726 25.644 7.63144 25.9798C8.56495 26.3063 9.58714 26.4695 10.698 26.4695C11.9209 26.4695 13.0085 26.2783 13.9606 25.8959C14.9221 25.5041 15.6783 24.9631 16.2291 24.2728C16.7798 23.5732 17.0552 22.757 17.0552 21.8242C17.0552 20.9754 16.8125 20.2804 16.3271 19.7394C15.851 19.1984 15.2022 18.7506 14.3807 18.3962C13.5686 18.0417 12.6491 17.7292 11.6222 17.4587L8.23355 16.5352C5.93712 15.9103 4.11678 14.9915 2.77252 13.7788C1.4376 12.5662 0.770145 10.9618 0.770145 8.96557C0.770145 7.31451 1.21823 5.87334 2.1144 4.64204C3.01057 3.41075 4.22413 2.45463 5.75509 1.77369C7.28604 1.08342 9.01303 0.738281 10.9361 0.738281C12.8778 0.738281 14.5908 1.07875 16.075 1.7597C17.5686 2.44064 18.7449 3.3781 19.6037 4.57208C20.4625 5.75674 20.9106 7.11863 20.948 8.65774H16.7752Z" fill="#3615FF"/>
<path d="M31.0109 4.85193V1.13006H53.2051V4.85193H44.2574V29.7856H39.9446V4.85193H31.0109Z" fill="#3615FF"/>
<path d="M63.0581 29.7856H58.4652L68.7852 1.13006H73.7841L84.1041 29.7856H79.5112L71.4037 6.33507H71.1796L63.0581 29.7856ZM63.8282 18.5641H78.727V22.202H63.8282V18.5641Z" fill="#3615FF"/>
<path d="M97.1706 1.13006L104.032 12.3376H104.256L111.117 1.13006H116.13L107.197 15.4578L116.186 29.7856H111.145L104.256 18.732H104.032L97.1426 29.7856H92.1017L101.245 15.4578L92.1577 1.13006H97.1706Z" fill="#3615FF"/>
<path d="M150.477 15.4578C150.477 18.5174 149.917 21.1479 148.797 23.3493C147.677 25.5414 146.141 27.2298 144.19 28.4144C142.248 29.5898 140.041 30.1774 137.567 30.1774C135.084 30.1774 132.867 29.5898 130.916 28.4144C128.974 27.2298 127.443 25.5367 126.323 23.3353C125.203 21.1339 124.642 18.5081 124.642 15.4578C124.642 12.3983 125.203 9.77244 126.323 7.58036C127.443 5.37896 128.974 3.69059 130.916 2.51526C132.867 1.33061 135.084 0.738281 137.567 0.738281C140.041 0.738281 142.248 1.33061 144.19 2.51526C146.141 3.69059 147.677 5.37896 148.797 7.58036C149.917 9.77244 150.477 12.3983 150.477 15.4578ZM146.192 15.4578C146.192 13.1259 145.814 11.1623 145.058 9.56722C144.311 7.96281 143.285 6.75017 141.978 5.92931C140.68 5.09912 139.21 4.68402 137.567 4.68402C135.915 4.68402 134.44 5.09912 133.142 5.92931C131.844 6.75017 130.818 7.96281 130.061 9.56722C129.315 11.1623 128.941 13.1259 128.941 15.4578C128.941 17.7898 129.315 19.7581 130.061 21.3625C130.818 22.9576 131.844 24.1702 133.142 25.0004C134.44 25.8212 135.915 26.2317 137.567 26.2317C139.21 26.2317 140.68 25.8212 141.978 25.0004C143.285 24.1702 144.311 22.9576 145.058 21.3625C145.814 19.7581 146.192 17.7898 146.192 15.4578Z" fill="#3615FF"/>
<path d="M201.955 10.4487H197.586C197.418 9.51592 197.106 8.69506 196.648 7.98613C196.191 7.2772 195.631 6.67555 194.968 6.18116C194.305 5.68678 193.563 5.31366 192.741 5.0618C191.929 4.80995 191.066 4.68402 190.151 4.68402C188.499 4.68402 187.019 5.09912 185.712 5.92931C184.415 6.7595 183.388 7.9768 182.632 9.58121C181.885 11.1856 181.511 13.1445 181.511 15.4578C181.511 17.7898 181.885 19.7581 182.632 21.3625C183.388 22.9669 184.419 24.1795 185.726 25.0004C187.033 25.8212 188.503 26.2317 190.137 26.2317C191.042 26.2317 191.901 26.1104 192.713 25.8679C193.535 25.616 194.277 25.2476 194.94 24.7625C195.603 24.2775 196.163 23.6851 196.62 22.9855C197.087 22.2766 197.409 21.4651 197.586 20.5509L201.955 20.5649C201.722 21.9734 201.269 23.27 200.597 24.4547C199.934 25.63 199.08 26.6468 198.034 27.5049C196.998 28.3538 195.813 29.0114 194.478 29.4778C193.143 29.9442 191.687 30.1774 190.109 30.1774C187.626 30.1774 185.413 29.5898 183.472 28.4144C181.53 27.2298 179.999 25.5367 178.879 23.3353C177.768 21.1339 177.213 18.5081 177.213 15.4578C177.213 12.3983 177.773 9.77244 178.893 7.58036C180.013 5.37896 181.544 3.69059 183.486 2.51526C185.427 1.33061 187.635 0.738281 190.109 0.738281C191.631 0.738281 193.05 0.957489 194.366 1.39591C195.691 1.82499 196.882 2.4593 197.936 3.29882C198.991 4.12901 199.864 5.14576 200.555 6.34907C201.246 7.54305 201.712 8.9096 201.955 10.4487Z" fill="#3615FF"/>
<path d="M213.047 29.7856V1.13006H223.269C225.491 1.13006 227.335 1.5125 228.8 2.2774C230.275 3.04229 231.377 4.10102 232.105 5.45358C232.833 6.79681 233.197 8.34992 233.197 10.1129C233.197 11.8666 232.828 13.4104 232.091 14.7443C231.363 16.0688 230.261 17.0996 228.786 17.8365C227.321 18.5734 225.477 18.9419 223.255 18.9419H215.512V15.22H222.863C224.263 15.22 225.402 15.0194 226.28 14.6183C227.167 14.2172 227.816 13.6342 228.226 12.8693C228.637 12.1044 228.842 11.1856 228.842 10.1129C228.842 9.03086 228.632 8.0934 228.212 7.30052C227.802 6.50764 227.153 5.90132 226.266 5.48156C225.388 5.05248 224.236 4.83793 222.807 4.83793H217.374V29.7856H213.047ZM227.204 16.857L234.289 29.7856H229.36L222.415 16.857H227.204Z" fill="#3615FF"/>
<path d="M244.377 29.7856V1.13006H262.356V4.85193H248.704V13.5829H261.418V17.2908H248.704V26.0638H262.524V29.7856H244.377Z" fill="#3615FF"/>
<path d="M276.473 29.7856H271.88L282.2 1.13006H287.199L297.519 29.7856H292.926L284.819 6.33507H284.595L276.473 29.7856ZM277.243 18.5641H292.142V22.202H277.243V18.5641Z" fill="#3615FF"/>
<path d="M302.772 4.85193V1.13006H324.966V4.85193H316.019V29.7856H311.706V4.85193H302.772Z" fill="#3615FF"/>
<path d="M340.112 1.13006V29.7856H335.785V1.13006H340.112Z" fill="#3615FF"/>
<path d="M354.835 1.13006L362.816 24.4687H363.138L371.12 1.13006H375.797L365.477 29.7856H360.478L350.158 1.13006H354.835Z" fill="#3615FF"/>
<path d="M385.853 29.7856V1.13006H403.832V4.85193H390.179V13.5829H402.894V17.2908H390.179V26.0638H404V29.7856H385.853Z" fill="#3615FF"/>
</svg>
