<svg width="30" height="24" viewBox="0 0 30 24" fill="none" xmlns="http://www.w3.org/2000/svg">
<path opacity="0.07" d="M9.38951 11.8452C10.5324 12.3097 11.4155 13.0581 12.0389 14.0903C12.7142 15.071 13.0518 16.2581 13.0518 17.6516C13.0518 19.5097 12.4544 21.0323 11.2596 22.2194C10.0648 23.4065 8.58431 24 6.81808 24C4.94795 24 3.41548 23.4065 2.22067 22.2194C1.02587 21.0323 0.428467 19.5097 0.428467 17.6516C0.428467 16.7226 0.532363 15.8194 0.740156 14.9419C0.999896 14.0645 1.46743 12.7484 2.14275 10.9935L6.27262 0H12.5064L9.38951 11.8452ZM25.909 11.8452C27.0518 12.3097 27.935 13.0581 28.5583 14.0903C29.2337 15.071 29.5713 16.2581 29.5713 17.6516C29.5713 19.5097 28.9739 21.0323 27.7791 22.2194C26.5843 23.4065 25.1038 24 23.3376 24C21.4674 24 19.935 23.4065 18.7402 22.2194C17.5453 21.0323 16.9479 19.5097 16.9479 17.6516C16.9479 16.7226 17.0518 15.8194 17.2596 14.9419C17.5194 14.0645 17.9869 12.7484 18.6622 10.9935L22.7921 0H29.0259L25.909 11.8452Z" fill="#252525"/>
</svg>
